<?xml version="1.0" encoding="utf-8"?>
<!-- Generator: Adobe Illustrator 24.1.2, SVG Export Plug-In . SVG Version: 6.00 Build 0)  -->
<svg version="1.1" id="Layer_1" xmlns="http://www.w3.org/2000/svg" xmlns:xlink="http://www.w3.org/1999/xlink" x="0px" y="0px"
	 viewBox="0 0 1300 900" style="enable-background:new 0 0 1300 900;" xml:space="preserve">
<style type="text/css">
	.st0{clip-path:url(#SVGID_2_);}
	.st1{fill:#011C48;}
</style>
<g>
	<defs>
		<rect id="SVGID_1_" width="1300" height="900"/>
	</defs>
	<clipPath id="SVGID_2_">
		<use xlink:href="#SVGID_1_"  style="overflow:visible;"/>
	</clipPath>
	<g class="st0">
		<g>
			<path class="st1" d="M253.11,1251.72l-1.22-0.44c49.95-138.33,154.65-300.66,369.65-288.43c87.9,5,174.81,29.11,258.86,52.42
				c183.31,50.85,356.46,98.88,547.74-28.31c177.22-117.84,202.62-315.96,192.71-461.41l1.3-0.09
				c5.61,82.42-1.43,158.04-20.92,224.76c-29.64,101.46-87.64,181.48-172.37,237.82c-46.1,30.66-92.37,52-141.44,65.25
				c-43.75,11.81-88.78,16.87-137.64,15.47c-90.79-2.6-181.75-27.84-269.73-52.24c-83.98-23.3-170.83-47.38-258.59-52.38
				C407.27,951.97,302.91,1113.81,253.11,1251.72z"/>
		</g>
		<g>
			<path class="st1" d="M244.67,1239.91l-1.22-0.45c14.84-40.19,32.7-77.21,53.1-110.02c23.08-37.13,49.54-69.06,78.64-94.89
				c68.53-60.83,152.01-88.66,248.13-82.73c88.12,5.61,173.28,27.41,255.63,48.48c180.79,46.27,351.54,89.97,535.71-34.81
				c175.17-118.68,199.46-321.58,189-470.89l1.3-0.09c10.49,149.65-13.88,353.02-189.57,472.05
				c-44.44,30.11-89.09,51.28-136.51,64.72c-42.39,12.02-86.15,17.56-133.77,16.94c-88.63-1.15-175.02-23.26-266.49-46.67
				c-82.3-21.06-167.39-42.84-255.39-48.44C391.28,938.82,286.49,1126.66,244.67,1239.91z"/>
		</g>
		<g>
			<path class="st1" d="M236.23,1228.1l-1.22-0.46c32.61-86.57,80.48-158.17,138.43-207.06c70.37-59.37,155.04-86.22,251.66-79.79
				c87.67,6.15,170.61,25.58,250.82,44.37c178.85,41.89,347.79,81.45,525.27-41.13c173.12-119.57,196.31-327.22,185.28-480.36
				l1.3-0.09c6.22,86.33-0.08,165.56-18.72,235.49c-28.3,106.21-84.53,188.98-167.12,246.03c-42.88,29.61-86.02,50.63-131.89,64.27
				c-41.13,12.22-83.73,18.23-130.23,18.37c-0.54,0-1.09,0-1.63,0c-86.17,0-171.86-20.07-262.56-41.31
				c-80.16-18.77-163.05-38.19-250.61-44.33c-9.52-0.63-18.85-0.94-27.96-0.94C377.97,941.14,277.33,1119.01,236.23,1228.1z"/>
		</g>
		<g>
			<path class="st1" d="M227.79,1216.3l-1.21-0.47c33.66-87.74,83.85-160.15,145.13-209.41c72.21-58.04,158.06-83.83,255.18-76.66
				c86.85,6.42,167.43,23.52,245.37,40.05c184.91,39.24,344.61,73.12,515.46-47.25c171.06-120.52,193.16-332.89,181.57-489.83
				l1.3-0.1c6.52,88.25,0.58,169.28-17.63,240.83c-27.63,108.56-82.98,192.73-164.49,250.16c-78.3,55.17-159.05,81.7-254.1,83.51
				c-84.88,1.61-171.1-16.68-262.38-36.05c-77.89-16.53-158.43-33.62-245.19-40.03C372.64,912.28,263.1,1124.28,227.79,1216.3z"/>
		</g>
		<g>
			<path class="st1" d="M219.36,1204.49l-1.21-0.47c34.7-88.94,87.2-162.11,151.83-211.61c35.39-27.1,74.45-47.16,116.09-59.6
				c44.54-13.31,92.52-18.05,142.62-14.07c84.49,6.7,161.65,21.39,236.27,35.6c184.68,35.16,344.17,65.52,509.3-53.23
				c169.01-121.53,190-338.6,177.86-499.3l1.3-0.1c6.81,90.15,1.25,172.97-16.54,246.15c-26.96,110.91-81.42,196.47-161.85,254.31
				c-89.2,64.14-176.72,84.9-267.39,84.91c-77.64,0-157.58-15.22-242.91-31.46c-74.58-14.2-151.71-28.88-236.13-35.58
				C444.74,905.44,295.57,1009.12,219.36,1204.49z"/>
		</g>
		<g>
			<path class="st1" d="M210.92,1192.68l-1.21-0.48c35.75-90.24,90.57-164.17,158.52-213.79c36.34-26.53,76.33-46.05,118.86-58.02
				c45.04-12.67,93.27-16.94,143.37-12.7c80.47,6.81,153.12,19.09,223.37,30.97c193.74,32.75,346.76,58.61,506.94-59.03
				c166.95-122.62,186.85-344.35,174.14-508.77l1.3-0.1c7.11,92.03,1.91,176.63-15.47,251.44
				c-26.29,113.23-79.86,200.2-159.2,258.48c-73.72,54.15-150.72,81.48-242.34,86.03c-9.43,0.47-18.96,0.69-28.54,0.69
				c-74.65,0-153.8-13.38-237.04-27.45c-70.23-11.87-142.85-24.15-223.27-30.96C444.33,893.24,287.53,999.29,210.92,1192.68z"/>
		</g>
		<g>
			<path class="st1" d="M202.48,1180.87l-1.21-0.48c36.82-91.63,93.95-166.31,165.22-215.96c37.27-25.97,78.2-44.95,121.64-56.43
				c45.52-12.02,94.01-15.83,144.12-11.33c74.07,6.66,140.61,16.56,204.96,26.14c197.71,29.42,353.87,52.66,510.09-64.64
				c173.58-130.34,181.29-380.64,170.43-518.24l1.29-0.1c7.41,93.87,2.56,180.24-14.4,256.71
				c-25.63,115.55-78.3,203.92-156.54,262.68c-72.09,54.13-148.03,82.02-238.97,87.77c-12.79,0.81-25.7,1.18-38.74,1.18
				c-71.63,0-147.54-11.3-233.35-24.07c-64.33-9.57-130.86-19.47-204.89-26.13C441.18,880.78,280.56,986.55,202.48,1180.87z"/>
		</g>
		<g>
			<path class="st1" d="M194.04,1169.06l-1.2-0.49c37.9-93.1,97.34-168.52,171.91-218.12c38.19-25.4,80.05-43.85,124.42-54.84
				c46-11.39,94.74-14.74,144.87-9.97c64.16,6.1,122.08,13.67,178.1,20.99c213.68,27.93,368.07,48.11,521.7-69.93
				c171.4-131.7,178.02-387.16,166.72-527.71l1.3-0.1c7.7,95.67,3.2,183.8-13.36,261.95c-24.97,117.84-76.74,207.64-153.86,266.9
				c-37.49,28.8-75.54,50.02-116.34,64.87c-37.47,13.64-77.35,21.88-121.92,25.18c-15.7,1.17-31.69,1.69-48,1.69
				c-71.41,0-149.05-10.15-236.4-21.57c-56-7.32-113.91-14.89-178.05-20.99C437.99,868.3,273.54,973.77,194.04,1169.06z"/>
		</g>
		<g>
			<path class="st1" d="M185.6,1157.25l-1.2-0.5c39-94.63,100.75-170.8,178.6-220.27c79.33-50.41,173.67-71.81,272.81-61.88
				c48.84,4.89,93.83,10.13,137.34,15.19c237.38,27.62,394.21,45.86,547.19-74.55c169.21-133.19,174.76-393.73,163-537.19l1.29-0.11
				c5.49,66.98,7.8,167.7-12.33,267.15c-24.32,120.12-75.18,211.35-151.17,271.16c-72.11,56.76-146.63,85.5-241.6,93.17
				c-87.82,7.1-184.34-4.13-306.54-18.35c-43.51-5.06-88.5-10.29-137.32-15.19C437.74,856.07,265.29,963.87,185.6,1157.25z"/>
		</g>
		<g>
			<path class="st1" d="M177.16,1145.44l-1.2-0.5c40.11-96.24,104.18-173.15,185.29-222.42c80.81-49.08,176.37-69.47,276.34-58.95
				c24.76,2.6,48.62,5.19,71.7,7.69c285.18,30.89,442.27,47.9,597.57-77.49c167.01-134.84,171.49-400.38,159.29-546.66l1.29-0.11
				c12.22,146.54,7.71,412.56-159.77,547.78c-73.64,59.45-151.25,89.53-251.66,97.52c-94.79,7.54-206.03-4.5-346.87-19.76
				c-23.08-2.5-46.94-5.08-71.7-7.69C434.56,843.52,258.18,951.03,177.16,1145.44z"/>
		</g>
		<g>
			<path class="st1" d="M168.72,1133.63l-1.2-0.5c41.23-97.9,107.62-175.54,191.98-224.55c82.23-47.76,179.01-67.14,279.88-56.03
				c332.26,36.59,498.85,48.47,654.01-80.23c164.79-136.69,168.21-407.11,155.58-556.13l1.29-0.11
				c5.87,69.25,8.84,173.59-10.36,277.44c-23.04,124.59-72.05,218.73-145.68,279.81c-38.76,32.15-78.4,55.84-121.18,72.41
				c-41.2,15.96-86.81,25.85-139.44,30.24c-102.16,8.52-227.89-3.8-394.36-22.13C431.33,830.94,251.05,938.15,168.72,1133.63z"/>
		</g>
		<g>
			<path class="st1" d="M160.29,1121.82l-1.2-0.51c42.37-99.61,111.07-177.99,198.67-226.67c83.61-46.46,181.61-64.83,283.41-53.12
				c330.97,38.07,492.87,33.88,638.75-90.66c162.56-138.78,164.93-413.94,151.87-565.61l1.29-0.11
				c6.05,70.29,9.33,176.36-9.44,282.51c-22.42,126.78-70.49,222.4-142.88,284.2c-36.41,31.09-73.31,54.51-112.79,71.59
				c-39.67,17.17-83.28,28.52-133.32,34.7C930.44,871,801.92,861.31,641.02,842.8C428.1,818.32,243.9,925.23,160.29,1121.82z"/>
		</g>
		<g>
			<path class="st1" d="M151.85,1110.01l-1.2-0.51c22.32-52,51.74-98.18,87.46-137.27c33.99-37.2,73.66-67.99,117.9-91.52
				c84.94-45.17,184.17-62.54,286.94-50.22c338.98,40.62,490.48,16.06,623.49-101.09c166.28-146.45,159-450.96,148.16-575.08
				l1.29-0.11c6.23,71.25,9.79,178.97-8.58,287.51c-21.82,128.93-68.93,226.05-140.01,288.66c-34.22,30.14-68.38,53.27-104.44,70.72
				c-38.15,18.46-79.76,31.27-127.2,39.17c-93.27,15.52-214.44,12.91-392.87-8.47C424.85,805.65,236.73,912.26,151.85,1110.01z"/>
		</g>
		<g>
			<path class="st1" d="M143.41,1098.2l-1.19-0.52c23.03-53.2,53.51-100.21,90.58-139.72c34.97-37.27,75.83-67.95,121.46-91.18
				c86.23-43.9,186.67-60.26,290.48-47.33c359.27,44.77,490.94-4.66,608.23-111.52c163.89-149.33,155.61-458.54,144.45-584.56
				l1.29-0.11c6.39,72.1,10.23,181.36-7.79,292.44c-21.25,131.03-67.37,229.67-137.08,293.19
				c-67.51,61.51-132.48,95.44-217.22,113.44c-95.66,20.32-220.24,19.82-392.05-1.59C469.8,798.96,246.36,860.41,143.41,1098.2z"/>
		</g>
		<g>
			<path class="st1" d="M134.97,1086.39l-1.19-0.52c23.75-54.41,55.27-102.23,93.7-142.13c35.93-37.32,78-67.85,125.02-90.76
				c44.3-21.58,92.7-36.27,143.84-43.67c48.91-7.07,99.44-7.37,150.18-0.89c340.95,44.62,475.6-10.93,592.97-121.95
				c161.46-152.74,152.21-466.31,140.74-594.03l1.29-0.12c5.35,59.61,11.55,177.49-7.09,297.28
				c-20.71,133.07-65.81,233.26-134.05,297.81c-31,29.33-58.95,51.22-87.93,68.9c-35.05,21.38-72.65,37.17-114.95,48.28
				c-47.25,12.41-100.24,19.03-162,20.25c-66.43,1.3-141.38-3.64-229.15-15.13C467.5,786.86,239.23,847.53,134.97,1086.39z"/>
		</g>
		<g>
			<path class="st1" d="M126.53,1074.57l-1.19-0.52c24.47-55.64,57.04-104.29,96.82-144.6c36.92-37.42,80.18-67.85,128.59-90.44
				c45.15-21.07,94.48-35.23,146.62-42.08c49.28-6.47,100.06-6.32,150.94,0.46c360.37,48.58,478.9-34.9,577.71-132.38
				c163.43-161.24,146.2-502.7,137.03-603.51l1.29-0.12c5.46,60.04,11.88,179.1-6.53,302c-20.22,135.02-64.25,236.81-130.88,302.55
				c-44.05,43.46-98.57,92.2-188.56,120.59c-96.76,30.53-224.41,34.51-390.23,12.15C465.35,774.33,232.34,834.03,126.53,1074.57z"/>
		</g>
		<g>
			<path class="st1" d="M118.09,1062.76l-1.19-0.53c25.2-56.87,58.82-106.35,99.94-147.07c37.9-37.53,82.37-67.85,132.15-90.12
				c46-20.58,96.26-34.2,149.39-40.49c49.64-5.88,100.68-5.27,151.69,1.8c374.38,51.9,478.66-56.06,562.44-142.81
				c160.76-166.44,142.69-511.27,133.32-612.99l1.29-0.12c5.55,60.26,12.13,180.23-6.14,306.58
				c-19.79,136.87-62.71,240.3-127.54,307.43c-39.68,41.08-89.06,92.2-174.3,123.97c-58.6,21.84-128.69,32.72-211.88,32.72
				c-53.55,0-112.52-4.5-177.37-13.5C463.21,761.76,225.45,820.44,118.09,1062.76z"/>
		</g>
		<g>
			<path class="st1" d="M107.78,1049.07l-1.19-0.52c24.68-56.34,57.66-105.64,98.01-146.53c37.29-37.78,81.04-68.6,130.06-91.6
				c45.43-21.33,95.09-35.84,147.6-43.15c49.26-6.85,99.95-7.26,150.67-1.2c355.21,42.45,476.83-46.66,570.96-141.56
				c162.54-163.88,146.51-500.93,137.72-600.33l1.29-0.11c5.23,59.13,11.17,176.67-7.73,299.5
				c-20.6,133.86-64.46,235.42-130.36,301.86c-42.56,42.91-95.37,91.23-183.71,121.44c-97.55,33.36-224.58,40.07-388.33,20.5
				C448.29,745.32,213.5,807.75,107.78,1049.07z"/>
		</g>
		<g>
			<path class="st1" d="M97.47,1035.38l-1.19-0.52c24.16-55.81,56.49-104.92,96.07-145.98c36.67-38.02,79.71-69.34,127.95-93.07
				c44.87-22.07,93.92-37.49,145.8-45.81c48.88-7.84,99.23-9.26,149.65-4.22c365.87,36.57,490.95-53.26,579.48-140.32
				c164.29-161.56,150.32-490.66,142.12-587.67l1.29-0.11c4.9,57.94,10.19,172.97-9.37,292.38
				c-21.43,130.82-66.22,230.52-133.13,296.33c-43.12,42.41-99.79,89.7-193.15,118.95c-64.3,20.15-140.7,30.17-231.18,30.17
				c-48,0-99.95-2.82-156.19-8.44C433.37,728.87,201.53,795.04,97.47,1035.38z"/>
		</g>
		<g>
			<path class="st1" d="M87.16,1021.69l-1.2-0.51c23.65-55.28,55.32-104.21,94.13-145.42c36.04-38.27,78.38-70.07,125.84-94.52
				c44.29-22.82,92.74-39.13,144-48.46c48.5-8.83,98.51-11.28,148.65-7.27c359.59,28.73,495.11-49.86,588-139.07
				c161.5-155.1,156.27-453.79,146.52-575.01l1.29-0.1c4.56,56.7,9.18,169.14-11.04,285.23
				c-22.26,127.76-67.98,225.61-135.87,290.82c-60,57.62-122.49,93.56-202.63,116.52c-67.64,19.38-148.26,29-244.13,29
				c-44.11,0-91.43-2.04-142.24-6.09C418.42,712.42,189.55,782.33,87.16,1021.69z"/>
		</g>
		<g>
			<path class="st1" d="M76.85,1008l-1.2-0.51c23.13-54.76,54.15-103.49,92.19-144.85c35.42-38.51,77.04-70.79,123.71-95.96
				c43.72-23.57,91.56-40.77,142.2-51.11c48.11-9.83,97.79-13.31,147.66-10.35c300.46,17.83,473.28-22.09,596.52-137.82
				c163.18-153.23,159.9-444.32,150.92-562.35l1.3-0.1c9,118.22,12.26,409.78-151.33,563.4c-59.07,55.47-126.49,91.74-212.15,114.13
				c-71.52,18.7-157.65,27.96-261.11,27.96c-38.91,0-80.25-1.31-124.22-3.92C403.48,695.96,177.55,769.62,76.85,1008z"/>
		</g>
		<g>
			<path class="st1" d="M66.54,994.31l-1.2-0.5c22.61-54.23,52.98-102.77,90.24-144.27c34.79-38.75,75.7-71.51,121.59-97.37
				c43.14-24.32,90.38-42.41,140.39-53.76c47.72-10.83,97.08-15.37,146.68-13.46c311.23,11.92,486.52-27.65,605.04-136.58
				c164.85-151.52,163.54-434.89,155.32-549.69l1.3-0.09c4.73,66.06,6.05,166.68-14.47,270.85
				c-23.96,121.59-71.49,215.75-141.27,279.89c-59.15,54.36-129.59,89.89-221.7,111.8c-97.05,23.09-222.74,31.3-384.27,25.12
				C388.52,679.51,165.54,756.91,66.54,994.31z"/>
		</g>
		<g>
			<path class="st1" d="M56.23,980.62l-1.2-0.5C98.09,875.46,169.95,790.77,262.85,735.2c42.92-25.67,89.55-44.75,138.61-56.72
				c47.8-11.66,96.8-16.31,145.64-13.82c307.31,15.66,490.79-24.82,613.53-135.33c166.52-149.94,167.17-425.51,159.72-537.04
				l1.3-0.09c4.3,64.4,4.98,162.41-16.23,263.63c-24.82,118.47-73.24,210.81-143.93,274.46c-60.68,54.64-136.38,91.81-231.4,113.63
				c-73.44,16.87-160.84,25.22-265.02,25.22c-37.17,0-76.46-1.06-118.05-3.18C332.05,655.02,139.38,778.52,56.23,980.62z"/>
		</g>
		<g>
			<path class="st1" d="M45.92,966.93l-1.21-0.49c42.18-103.93,112.61-188.96,203.68-245.89c42.34-26.47,88.37-46.45,136.8-59.38
				c47.44-12.67,96.13-18.32,144.74-16.79c322.44,10.15,502.67-28.69,622.05-134.09c168.19-148.48,170.81-416.18,164.12-524.38
				l1.3-0.08c3.87,62.7,3.89,158.07-18,256.39c-25.68,115.34-74.99,205.86-146.57,269.05c-61.13,53.96-139.93,90.48-240.92,111.63
				c-98.6,20.65-219.99,27.89-382.03,22.79C317.76,638.99,127.82,765.1,45.92,966.93z"/>
		</g>
		<g>
			<path class="st1" d="M35.6,953.24l-1.21-0.48c21.07-52.66,49.46-100.59,84.38-142.45c32.9-39.43,71.65-73.57,115.18-101.49
				c81.96-52.57,178.36-81.86,278.77-84.72c307.03-8.75,502.69-22.05,630.59-132.84c163.76-141.85,175.88-381.5,168.53-511.72
				l1.3-0.07c3.44,60.96,2.8,153.67-19.79,249.12c-26.55,112.2-76.75,200.9-149.19,263.65c-60.37,52.29-139.96,85.69-250.49,105.13
				C786.08,616.3,652.1,621.43,512.77,625.4C343.56,630.22,129.35,718.88,35.6,953.24z"/>
		</g>
		<g>
			<path class="st1" d="M25.29,939.55l-1.21-0.48c20.55-52.14,48.28-99.86,82.43-141.81c32.26-39.64,70.29-74.23,113.04-102.81
				c80.92-54.1,176.36-85.44,276.01-90.63c20.71-1.08,41-2.09,60.89-3.09c263.46-13.18,453.8-22.7,578.22-128.51
				c165.38-140.65,179.33-373.05,172.93-499.07l1.3-0.07c3.01,59.2,1.71,149.21-21.59,241.84
				c-27.42,109.04-78.49,195.94-151.8,258.28c-124.75,106.09-315.29,115.62-579,128.81c-19.89,0.99-40.19,2.01-60.89,3.09
				C282.43,616.23,102.21,744.38,25.29,939.55z"/>
		</g>
		<g>
			<path class="st1" d="M14.98,925.86l-1.21-0.47c20.03-51.62,47.11-99.12,80.48-141.16c31.63-39.85,68.94-74.87,110.9-104.1
				c79.86-55.63,174.35-89.03,273.24-96.59c47.62-3.64,93.36-6.45,137.58-9.16c220.06-13.49,393.88-24.14,510.05-121.19
				c167.02-139.54,182.79-364.65,177.33-486.41l1.3-0.06c5.47,122-10.34,347.56-177.79,487.47
				c-116.5,97.33-290.5,107.99-510.81,121.49c-44.22,2.71-89.95,5.51-137.56,9.15C267.95,600.94,90.35,731.62,14.98,925.86z"/>
		</g>
		<g>
			<path class="st1" d="M4.67,912.17l-1.21-0.46c19.51-51.1,45.93-98.37,78.53-140.49c30.99-40.04,67.58-75.49,108.77-105.36
				c78.78-57.14,172.31-92.62,270.47-102.6c64.54-6.57,126.37-10.58,186.16-14.46c192.5-12.5,358.75-23.29,469.99-114.64
				C1286.04,295.64,1303.63,77.88,1299.1-39.6l1.3-0.05c2.14,55.59-0.5,140.14-25.23,227.23
				c-29.17,102.69-81.98,185.99-156.98,247.58c-51.13,41.99-115.98,69.66-204.1,87.09c-79.33,15.69-170.31,21.59-266.63,27.85
				c-59.78,3.88-121.6,7.89-186.12,14.46C253.45,585.71,78.46,718.91,4.67,912.17z"/>
		</g>
		<g>
			<path class="st1" d="M-5.64,898.48l-1.22-0.46c18.99-50.58,44.76-97.62,76.58-139.79c30.35-40.23,66.23-76.09,106.64-106.58
				c77.69-58.63,170.25-96.21,267.68-108.67c75.31-9.63,148.43-14.3,219.14-18.81c180.91-11.54,337.15-21.51,445.54-109.05
				c170.34-137.57,189.73-347.94,186.13-461.1l1.3-0.04c1.71,53.75-1.6,135.54-27.07,219.91c-30.04,99.5-83.72,181-159.55,242.24
				c-108.71,87.8-265.14,97.78-446.27,109.34c-70.69,4.51-143.79,9.17-219.06,18.8C238.9,570.53,66.53,706.26-5.64,898.48z"/>
		</g>
		<g>
			<path class="st1" d="M-15.95,884.79l-1.22-0.45c18.47-50.06,43.58-96.85,74.64-139.08c29.71-40.4,64.88-76.66,104.52-107.77
				c76.58-60.1,168.18-99.8,264.88-114.79c82.12-12.73,163.73-17.61,242.65-22.32c166.42-9.94,323.61-19.33,430.54-104.29
				c172.03-136.7,193.22-339.64,190.54-448.44l1.3-0.03c1.86,75.48-7.87,147-28.91,212.57c-30.91,96.29-85.45,176-162.12,236.92
				c-48.99,38.93-110.09,64.49-192.28,80.46c-73.18,14.21-153.72,19.02-238.99,24.12c-78.9,4.71-160.48,9.58-242.53,22.31
				C224.31,555.43,54.56,693.68-15.95,884.79z"/>
		</g>
		<g>
			<path class="st1" d="M-26.26,871.1l-1.22-0.44c17.95-49.54,42.41-96.08,72.71-138.34c29.08-40.55,63.54-77.2,102.42-108.92
				c75.45-61.55,166.07-103.38,262.06-120.98c86.24-15.81,174.6-20.57,260.05-25.16c162.11-8.72,315.24-16.96,421.67-100.21
				c165.04-129.09,197.11-308.23,194.94-435.79l1.3-0.02c1.24,72.75-9.11,141.79-30.76,205.22c-31.77,93.08-87.17,171-164.67,231.62
				c-106.76,83.5-260.08,91.75-422.4,100.48c-85.41,4.6-173.72,9.35-259.88,25.14C209.68,540.42,42.54,681.19-26.26,871.1z"/>
		</g>
		<g>
			<path class="st1" d="M-36.58,857.41l-1.22-0.44c17.42-49.01,41.23-95.29,70.78-137.57c28.44-40.69,62.2-77.71,100.33-110.02
				c74.31-62.96,163.94-106.95,259.2-127.23c88.53-18.84,182.45-23.27,273.28-27.56c159.52-7.53,310.19-14.64,416.96-96.57
				c166.7-128.85,200.41-301.22,199.34-423.13l1.3-0.01c0.61,69.85-10.39,136.38-32.71,197.74
				c-32.66,89.77-88.89,165.96-167.13,226.44c-107.1,82.18-257.97,89.3-417.7,96.84c-90.77,4.28-184.64,8.71-273.07,27.53
				C191.99,526.15,31.48,665.96-36.58,857.41z"/>
		</g>
		<g>
			<path class="st1" d="M-46.89,843.71l-1.23-0.43c33.16-95.15,90.95-180.86,167.14-247.87c73.15-64.34,161.78-110.52,256.32-133.55
				c89.46-21.79,188.13-25.65,283.56-29.39c158.31-6.2,307.83-12.05,415.2-93.5c168.4-127.75,203.74-293.73,203.74-410.48h1.3
				c0,67.21-11.6,131.29-34.49,190.49c-33.49,86.61-90.6,160.98-169.77,221.03c-48.37,36.69-110.5,61.3-189.95,75.24
				c-71.01,12.46-149.79,15.54-225.98,18.52c-95.36,3.73-193.98,7.59-283.31,29.35C177.28,511.45,19.32,653.73-46.89,843.71z"/>
		</g>
		<g>
			<path class="st1" d="M-64.52,812.24l-1.21-0.48c38.66-98.06,99.48-179.67,180.77-242.55c72.7-56.24,161.69-97.59,264.49-122.9
				c86.98-21.34,180.87-27.8,271.67-34.04c156.36-10.74,304.04-20.89,411.85-101.92c167.51-125.84,207.02-281.1,210.68-389.19
				l1.3,0.04c-2.1,62-15.46,121.91-39.73,178.09c-35.34,81.81-93.03,153.17-171.47,212.1c-49.25,37.01-109.29,61.67-188.95,77.59
				c-70.3,14.05-144.76,19.17-223.59,24.58c-90.74,6.24-184.57,12.68-271.45,34C162.06,501.19,8.4,627.29-64.52,812.24z"/>
		</g>
		<g>
			<path class="st1" d="M-82.15,780.76l-1.19-0.52c44.05-100.98,107.64-178.58,194.4-237.23c70.95-47.97,157.59-83.65,272.67-112.26
				C467.5,410.04,556,401.22,641.59,392.7c155.13-15.44,301.65-30.03,410.4-110.97c175.38-130.43,211.62-286.49,217.61-367.9
				l1.3,0.1c-4.12,56.03-19.67,113.32-44.97,165.69c-37.2,77.01-95.46,145.37-173.17,203.16C943.73,363.93,797.03,378.53,641.72,394
				c-85.54,8.52-174,17.32-257.69,38.01C209.85,475.32,18.24,550.63-82.15,780.76z"/>
		</g>
		<g>
			<path class="st1" d="M-99.79,749.28l-1.17-0.56c25.87-54.47,56.21-100.19,92.76-139.79c33.25-36.02,70.95-66.16,115.26-92.13
				c85.7-50.23,185.73-77.75,280.84-101.62c79.5-19.79,161.74-30.61,241.27-41.07c154.96-20.38,301.33-39.64,411.75-121.01
				c174.38-128.35,215.54-272.26,224.55-346.62l1.29,0.16c-9.04,74.57-50.3,218.86-225.07,347.51
				C931.01,335.71,784.48,354.99,629.34,375.4c-79.5,10.46-161.7,21.27-241.13,41.05C175.98,469.72,5.28,528.06-99.79,749.28z"/>
		</g>
		<g>
			<path class="st1" d="M-117.42,717.8l-1.16-0.59c111.52-218.37,277.49-259.6,469.66-307.33c13.38-3.32,27.22-6.76,41.01-10.25
				c73.52-18.44,148.12-30.7,220.25-42.55c156.48-25.72,304.28-50.01,417.53-132.59c173.33-126.22,219.43-258.01,231.49-325.34
				l1.28,0.23c-12.09,67.52-58.31,199.67-232.01,326.16c-113.49,82.77-261.44,107.08-418.08,132.82
				c-72.11,11.85-146.67,24.11-220.14,42.53c-13.79,3.49-27.63,6.93-41.02,10.26C159.53,458.79-6.17,499.95-117.42,717.8z"/>
		</g>
		<g>
			<path class="st1" d="M-135.05,686.31l-1.14-0.62c112.19-206.28,263.16-240.18,437.97-279.42c30.64-6.88,62.33-13.99,94.51-22.21
				c64.68-16.34,129.23-29.07,191.65-41.38c160.9-31.73,312.88-61.7,430.88-146.83c172.17-124.01,223.29-243.74,238.44-304.07
				l1.26,0.32c-7.18,28.59-23.53,74.09-60.69,128.47c-42.81,62.65-102.78,121.98-178.25,176.34
				c-118.23,85.3-270.35,115.3-431.39,147.05c-62.41,12.31-126.94,25.03-191.58,41.36c-32.2,8.22-63.89,15.34-94.54,22.22
				C127.55,446.71-23.15,480.54-135.05,686.31z"/>
		</g>
		<g>
			<path class="st1" d="M-152.69,654.82l-1.13-0.65C-39.07,454.5,103.4,427.63,268.37,396.53c42.64-8.04,86.73-16.35,132.09-28.03
				c50.37-12.82,100.15-24.18,148.3-35.16c171-39.02,332.53-75.88,458.99-166.11C1184.98,41,1238.4-72.6,1253.13-115.59l1.23,0.42
				c-8.63,25.17-27.07,65.74-65.93,116.05c-44.7,57.88-105.24,114.2-179.94,167.4c-57.84,41.27-125.22,73.74-212.03,102.18
				c-77.27,25.31-159.92,44.17-247.42,64.14c-48.14,10.99-97.92,22.34-148.26,35.16c-45.41,11.69-89.52,20-132.18,28.05
				C103.96,428.85-38.25,455.67-152.69,654.82z"/>
		</g>
		<g>
			<path class="st1" d="M-170.32,623.34l-1.11-0.67c54.15-89.76,115.47-148.5,192.97-184.88c69.33-32.54,143.72-43.46,222.48-55.03
				c51.69-7.59,105.13-15.44,160.63-29.83c23.64-6.06,47.2-12,69.98-17.75c203.25-51.26,378.77-95.53,522.06-196.59
				c175.54-123.55,234.95-224.07,252.35-261.56l1.18,0.55c-17.44,37.58-76.98,138.34-252.78,262.07
				c-143.49,101.2-319.12,145.5-522.49,196.79c-22.78,5.75-46.33,11.69-69.97,17.74c-55.56,14.41-109.04,22.26-160.76,29.85
				C85.16,407.4-52.21,427.57-170.32,623.34z"/>
		</g>
		<g>
			<path class="st1" d="M-187.95,591.85l-1.1-0.69c56.15-89.12,118.29-146.2,195.53-179.65c68.99-29.87,141.8-37.33,218.88-45.23
				c58.91-6.04,119.82-12.28,183.48-28.9c251.97-65.04,427.12-123.1,576.79-227.4c173.08-120.36,239.01-208.15,259.32-240.31
				l1.1,0.69c-20.35,32.23-86.4,120.2-259.68,240.69c-73.24,51.04-158.72,94.45-261.34,132.72
				c-102.08,38.07-212.14,68.1-315.87,94.87c-63.75,16.65-124.71,22.89-183.67,28.94C69.39,383.56-65.42,397.38-187.95,591.85z"/>
		</g>
		<g>
			<path class="st1" d="M-205.58,560.36l-1.09-0.71c58.4-89.14,121.81-144.99,199.55-175.78c69.31-27.45,141.36-31.58,217.63-35.96
				c64.92-3.72,132.05-7.57,202.52-26.1c235.8-61.3,408.98-135.47,561.55-240.47c168.13-115.46,242.25-191.67,266.32-219.08
				l0.98,0.86c-24.1,27.44-98.31,103.75-266.56,219.29c-152.69,105.09-326,179.31-561.96,240.66
				c-70.59,18.55-137.79,22.41-202.77,26.14C55.69,358.09-78.08,365.76-205.58,560.36z"/>
		</g>
		<g>
			<path class="st1" d="M-223.21,528.86l-1.08-0.73c32.11-47.31,65.14-84.52,100.96-113.77c32.17-26.27,66.07-45.6,103.63-59.1
				c70.1-25.21,141.95-26.1,218.02-27.05c70.09-0.87,142.57-1.78,218.88-21.96c248.23-65,415.45-164.64,546.3-253.53
				c155.76-105.6,235.08-167.83,268.95-194.4l4.39-3.45l0.8,1.02l-4.39,3.44c-33.88,26.58-113.22,88.84-269.02,194.46
				C833.3,142.75,665.95,242.46,417.54,307.5c-76.46,20.23-149.02,21.13-219.19,22C49.89,331.36-90.34,333.1-223.21,528.86z"/>
		</g>
		<g>
			<path class="st1" d="M-240.84,497.37l-1.06-0.75c33.47-47.76,67.66-85,104.51-113.84c33.07-25.88,67.7-44.47,105.89-56.84
				c71.23-23.08,143.31-20.8,219.61-18.39c74.66,2.36,151.85,4.8,233.29-16.87c220.5-58.15,369.72-158.31,514.03-255.18
				c5.68-3.81,11.35-7.62,17.03-11.42c189.97-127.08,257.21-165.19,280.39-176.61l0.57,1.17
				c-39.38,19.39-141.53,83.73-280.24,176.52c-5.67,3.8-11.35,7.61-17.03,11.42c-144.4,96.93-293.71,197.15-514.42,255.35
				c-81.62,21.72-158.91,19.28-233.66,16.91C38.74,304.13-102.29,299.68-240.84,497.37z"/>
		</g>
		<g>
			<path class="st1" d="M-258.47,465.88l-1.05-0.76c34.89-48.35,70.32-85.72,108.31-114.24c34.05-25.56,69.54-43.48,108.49-54.77
				c72.61-21.04,145.22-15.63,222.09-9.91c78.76,5.87,160.2,11.94,246.22-11.09C609.88,226.18,734.5,139.03,855,54.76
				c28.22-19.73,57.39-40.14,86.39-59.3c150.21-99.1,246.98-145.22,287.45-155.34l0.31,1.26
				c-40.37,10.09-136.97,56.15-287.05,155.16c-28.98,19.15-58.15,39.55-86.36,59.28c-120.6,84.34-245.31,171.55-429.83,220.55
				c-86.23,23.08-167.79,17-246.66,11.13C28.46,276.27-113.98,265.66-258.47,465.88z"/>
		</g>
		<g>
			<path class="st1" d="M-276.1,434.39l-1.04-0.77c151.09-203.81,295.73-187.02,448.88-169.26c82.52,9.57,167.84,19.47,258.03-4.8
				C596.18,215.05,706.42,131.8,813.02,51.28c39.79-30.05,77.38-58.44,117.31-84.45c147.13-95.69,248.61-131.98,294.51-134.04
				l0.06,1.3c-45.73,2.05-146.95,38.29-293.86,133.83c-39.89,25.99-77.46,54.36-117.24,84.4c-106.7,80.59-217.04,163.92-383.7,208.5
				c-90.43,24.33-175.88,14.42-258.52,4.83C18.82,247.93-125.46,231.18-276.1,434.39z"/>
		</g>
		<g>
			<path class="st1" d="M-293.73,402.89l-1.04-0.79C-137.34,194.94,9.52,217.86,165,242.13c86,13.42,174.93,27.3,268.96,1.87
				c155.89-41.99,256.06-124.78,352.92-204.85c44.48-36.77,86.5-71.5,132.4-100.94c69.89-44.78,135.03-77.09,193.61-96.02
				c59.07-19.09,92.99-18.66,107.95-16.7l-0.17,1.29c-17.35-2.27-113.34-7.52-300.69,112.53C874.14-31.3,832.16,3.4,787.71,40.15
				c-47.69,39.42-97,80.18-153.9,116.34c-64.38,40.91-129.64,69.95-199.51,88.77c-94.29,25.5-183.36,11.6-269.5-1.84
				C9.71,219.21-136.78,196.34-293.73,402.89z"/>
		</g>
		<g>
			<path class="st1" d="M-311.36,371.4l-1.03-0.8c39.43-50.71,78.91-88.92,120.71-116.79c37.38-24.93,75.86-41.02,117.64-49.2
				c77.76-15.21,153.17-0.53,233.01,15.01c89.27,17.38,181.58,35.34,279.18,8.81C587.17,188.02,679.45,104.02,768.7,22.79
				c46.34-42.18,90.12-82.02,139.52-113.21c69.1-43.6,134.83-72.91,195.37-87.12c44.58-10.47,85.85-12.02,113.22-4.27l-0.35,1.25
				c-27.17-7.7-68.2-6.14-112.57,4.28c-60.4,14.18-125.99,43.44-194.97,86.96C859.6-58.2,815.87-18.39,769.57,23.75
				c-43.87,39.93-89.22,81.21-142.37,117.66c-60.19,41.28-121.92,70.16-188.72,88.27c-97.89,26.61-190.35,8.61-279.76-8.79
				C1.01,190.2-147.95,161.21-311.36,371.4z"/>
		</g>
		<g>
			<path class="st1" d="M-328.99,339.9l-1.02-0.81c41.01-51.64,81.92-90.22,125.08-117.95c38.58-24.79,78.16-40.32,121-47.47
				c79.69-13.32,156.32,4.44,237.44,23.24c92.36,21.4,187.87,43.53,288.82,15.96C586.57,173.48,672.22,87.34,755.05,4.04
				c46.59-46.85,90.59-91.1,142.1-123.09c68.35-42.44,134.67-68.75,197.12-78.22c46.08-6.98,89.26-4,118.47,8.17l-0.5,1.2
				c-55.7-23.21-171.46-18.81-314.41,69.95c-51.38,31.9-95.33,76.1-141.87,122.9c-40.66,40.89-82.7,83.17-132.81,120.33
				c-56.8,42.12-115.84,71.18-180.49,88.84c-33.84,9.24-67.07,12.92-99.75,12.92c-65.12,0-128.1-14.6-189.71-28.87
				C-7.34,160.97-158.99,125.83-328.99,339.9z"/>
		</g>
		<g>
			<path class="st1" d="M-332.79,331.14l-1.04-0.79c39.72-52.28,79.64-91.52,122.02-119.96c37.91-25.44,77.03-41.65,119.6-49.57
				c79.23-14.72,156.34,1.66,237.98,19c92.45,19.64,188.04,39.94,288.61,12.05c143.4-39.77,228.04-123.86,309.89-205.19
				c47.06-46.76,91.51-90.92,144.32-123.05c67.68-41.44,133.72-66.91,196.29-75.71c46.65-6.56,90.11-3.03,119.24,9.67l-0.52,1.19
				c-13.68-5.96-52.62-18.84-118.54-9.57c-62.39,8.77-128.27,34.18-195.8,75.53C836.59-103.21,792.2-59.1,745.2-12.39
				c-40.23,39.97-81.82,81.3-131.43,117.72c-56.18,41.25-114.75,69.97-179.03,87.8c-35.56,9.86-70.49,13.72-104.86,13.72
				c-63.14,0-124.41-13.02-184.37-25.75C-15.8,146.83-168.16,114.47-332.79,331.14z"/>
		</g>
		<g>
			<path class="st1" d="M-336.6,322.38l-1.05-0.76c38.44-52.93,77.36-92.84,118.98-122.01c37.25-26.1,75.92-43,118.24-51.67
				c78.79-16.13,156.42-1.12,238.61,14.76c92.49,17.88,188.12,36.37,288.26,8.17c142.88-40.22,226.67-122.43,307.7-201.94
				c47.34-46.45,92.05-90.32,145.89-122.62c67.17-40.29,132.97-64.87,195.56-73.05c47.26-6.18,90.96-2.16,119.92,11.01l-0.54,1.18
				c-28.74-13.07-72.2-17.05-119.21-10.91c-62.41,8.15-128.04,32.67-195.06,72.87C827-120.35,782.34-76.53,735.06-30.14
				c-39.87,39.12-81.1,79.58-130.3,115.33c-55.68,40.46-113.9,68.9-177.96,86.93c-37.4,10.53-74.17,14.57-110.35,14.57
				c-61,0-120.37-11.48-178.51-22.72C-24.19,132.64-177.32,103.04-336.6,322.38z"/>
		</g>
		<g>
			<path class="st1" d="M-340.4,313.62l-1.07-0.74C-187.08,90.11-32.7,117.04,130.74,145.55c92.48,16.13,188.1,32.81,287.77,4.33
				C560.7,109.26,643.55,28.98,723.67-48.67c47.71-46.23,92.77-89.89,147.81-122.33c65.63-38.68,132.98-63.05,194.76-70.48
				c47.83-5.75,91.81-1.21,120.66,12.45l-0.56,1.17c-44.45-21.05-160.64-32.53-314.2,57.97c-54.91,32.36-99.92,75.97-147.57,122.15
				C685.1-9.48,644.28,30.07,595.55,65.13c-55.13,39.65-112.92,67.78-176.68,86c-39.38,11.26-78.13,15.48-116.28,15.48
				c-58.67,0-115.94-9.99-172.07-19.78C-32.5,118.39-186.48,91.53-340.4,313.62z"/>
		</g>
		<g>
			<path class="st1" d="M-344.21,304.86l-1.09-0.72c149.01-225.6,304.32-201.41,468.74-175.8c92.42,14.4,187.99,29.28,287.12,0.54
				c141.48-41,223.39-119.37,302.6-195.17c48.07-46,93.48-89.44,149.75-122.02c65.03-37.64,132.1-61.13,193.96-67.92
				c48.41-5.31,92.65-0.25,121.4,13.9l-0.57,1.17c-28.53-14.04-72.52-19.06-120.69-13.77c-61.69,6.77-128.58,30.2-193.45,67.75
				c-56.14,32.5-101.49,75.89-149.5,121.83c-79.33,75.9-161.36,154.39-303.14,195.48c-41.53,12.04-82.44,16.45-122.72,16.46
				c-56.13,0-111.08-8.56-164.97-16.95C-40.75,104.08-195.65,79.95-344.21,304.86z"/>
		</g>
		<g>
			<path class="st1" d="M-348.01,296.1l-1.1-0.69C-205.49,66.89-49.18,88.36,116.3,111.08c92.31,12.68,187.77,25.79,286.33-3.21
				C543.38,66.51,624.35-9.98,702.65-83.95c48.43-45.75,94.18-88.97,151.72-121.68c64.41-36.62,131.2-59.23,193.15-65.37
				c48.97-4.86,93.49,0.74,122.15,15.36l-0.59,1.16c-41.22-21.03-159.91-37.66-314.07,49.99c-57.4,32.63-103.09,75.8-151.47,121.49
				C625.13-8.93,544.04,67.66,403,109.12c-98.83,29.07-194.43,15.94-286.87,3.25C-48.93,89.7-204.83,68.29-348.01,296.1z"/>
		</g>
		<g>
			<path class="st1" d="M-351.82,287.33l-1.12-0.67c33.28-55.74,68.25-98.46,106.91-130.58c34.67-28.8,71.68-48.49,113.15-60.17
				c77.32-21.79,157.4-12.25,242.18-2.15c92.16,10.98,187.45,22.33,285.38-6.89c140-41.73,220.02-116.35,297.41-188.52
				c48.79-45.5,94.88-88.47,153.71-121.3c63.79-35.6,130.29-57.33,192.33-62.84c49.54-4.4,94.33,1.74,122.91,16.83l-0.61,1.15
				c-28.36-14.98-72.9-21.06-122.19-16.69c-61.86,5.49-128.19,27.17-191.82,62.68c-58.69,32.76-104.72,75.68-153.45,121.12
				C615.49-28.42,535.35,46.3,395.06,88.12c-98.19,29.29-193.62,17.93-285.91,6.93C-57.04,75.26-214.03,56.56-351.82,287.33z"/>
		</g>
		<g>
			<path class="st1" d="M-355.62,278.57l-1.13-0.64c31.98-56.49,65.97-99.94,103.91-132.82c34.04-29.5,70.66-49.89,111.97-62.34
				c77.03-23.21,157.82-15.04,243.35-6.39c91.94,9.3,187.02,18.91,284.28-10.5C525.98,23.8,605.06-48.98,681.53-119.36
				c49.14-45.23,95.56-87.95,155.72-120.9c63.15-34.59,129.38-55.45,191.51-60.32c50.09-3.92,95.17,2.75,123.67,18.32l-0.62,1.14
				c-28.29-15.44-73.1-22.06-122.95-18.16c-61.95,4.85-128,25.65-190.99,60.16c-60.02,32.88-106.38,75.55-155.46,120.72
				C605.83-47.92,526.64,24.96,387.13,67.12c-97.51,29.49-192.71,19.86-284.78,10.55C-65.1,60.74-223.24,44.74-355.62,278.57z"/>
		</g>
		<g>
			<path class="st1" d="M-359.43,269.81l-1.15-0.61c30.68-57.26,63.68-101.46,100.92-135.11c33.42-30.21,69.67-51.31,110.82-64.52
				C-72.06,44.92,9.47,51.72,95.79,58.92c91.68,7.65,186.49,15.55,283.01-14.04C517.25,2.47,595.38-68.48,670.93-137.1
				c49.5-44.95,96.25-87.41,157.76-120.47c78.97-42.44,147.28-54.86,190.68-57.8c50.65-3.43,96.01,3.79,124.44,19.81l-0.64,1.13
				c-27.8-15.67-74.06-23.01-123.72-19.64c-43.27,2.93-111.39,15.32-190.16,57.65c-61.38,32.99-108.07,75.39-157.5,120.29
				C596.15-67.43,517.91,3.62,379.19,46.12c-96.77,29.67-191.7,21.75-283.5,14.1C-73.08,46.14-232.49,32.85-359.43,269.81z"/>
		</g>
		<g>
			<path class="st1" d="M-363.23,261.04l-1.16-0.59c29.36-58.05,61.39-103,97.92-137.44c32.8-30.92,68.69-52.75,109.71-66.72
				C-80.21,30.22,2.12,35.64,89.28,41.39c91.37,6.02,185.84,12.25,281.59-17.51C508.5-18.85,585.67-88,660.3-154.87
				c49.84-44.66,96.92-86.85,159.84-120.01c78.15-41.19,146.38-52.81,189.85-55.3c50.46-2.89,97.26,5.08,125.22,21.31l-0.65,1.12
				c-27.74-16.11-74.28-24.01-124.49-21.14c-43.34,2.48-111.37,14.07-189.32,55.15c-62.77,33.09-109.79,75.22-159.58,119.83
				C586.43-86.94,509.16-17.69,371.25,25.12C275.27,54.94,180.67,48.71,89.19,42.68C-81,31.47-241.76,20.88-363.23,261.04z"/>
		</g>
		<g>
			<path class="st1" d="M-367.04,252.28l-1.17-0.56c28.04-58.85,59.08-104.59,94.92-139.82c32.19-31.65,67.73-54.2,108.64-68.95
				C-88.29,15.44-5.13,19.48,82.92,23.76c90.99,4.43,185.09,9,280.01-20.88c136.79-43.03,213-110.4,286.7-175.56
				c50.19-44.37,97.59-86.27,161.95-119.53c77.33-39.95,145.46-50.77,189.01-52.81c51-2.39,98.1,6.15,126,22.83l-0.67,1.12
				c-45.82-27.4-171.51-43.47-313.74,30.02c-64.21,33.18-111.56,75.03-161.68,119.34C576.69-106.46,500.38-39,363.32,4.12
				C268.17,34.07,173.96,29.49,82.85,25.06C-88.87,16.71-251.07,8.82-367.04,252.28z"/>
		</g>
		<g>
			<path class="st1" d="M-370.84,243.52l-1.19-0.53c26.7-59.68,56.77-106.21,91.92-142.24c31.59-32.38,66.79-55.67,107.61-71.19
				C-96.3,0.57-12.26,3.23,76.71,6.05c90.57,2.87,184.23,5.83,278.28-24.17c135.92-43.32,211.17-108.93,283.94-172.39
				c50.53-44.06,98.25-85.68,164.09-119.01c76.49-38.73,144.54-48.74,188.16-50.33c51.55-1.88,98.93,7.23,126.78,24.35l-0.68,1.11
				c-27.64-16.99-74.77-26.02-126.05-24.16c-43.49,1.58-111.34,11.57-187.62,50.19c-65.69,33.26-113.36,74.82-163.82,118.83
				c-72.87,63.54-148.22,129.25-284.4,172.65C261.12,13.18,167.35,10.22,76.67,7.35C-96.69,1.86-260.42-3.32-370.84,243.52z"/>
		</g>
		<g>
			<path class="st1" d="M-374.65,234.75l-1.2-0.5c25.35-60.52,54.44-107.86,88.91-144.71c30.99-33.13,65.87-57.16,106.62-73.46
				c76.08-30.45,161.04-29.19,250.99-27.84c90.1,1.34,183.25,2.73,276.38-27.35C482.08-82.7,556.36-146.59,628.19-208.36
				c50.87-43.75,98.91-85.07,166.27-118.47c75.65-37.51,143.62-46.73,187.31-47.86c52.11-1.34,99.77,8.33,127.57,25.89l-0.69,1.1
				c-49.17-31.04-178.97-44.73-313.61,22.03c-67.22,33.33-115.2,74.6-166,118.29c-71.93,61.86-146.31,125.83-281.59,169.5
				C254.12-7.74,160.84-9.12,70.65-10.47C-112.03-13.19-269.81-15.54-374.65,234.75z"/>
		</g>
		<g>
			<path class="st1" d="M-378.46,225.99l-1.21-0.47c23.99-61.39,52.09-109.54,85.9-147.22c30.4-33.88,64.96-58.67,105.66-75.76
				c76-31.93,161.92-32.07,252.89-32.21c89.56-0.14,182.17-0.29,274.33-30.43c134.1-43.83,207.4-106.01,278.29-166.13
				c51.2-43.42,99.56-84.44,168.5-117.9c74.8-36.3,142.68-44.72,186.46-45.39c52.6-0.81,100.61,9.45,128.37,27.43l-0.71,1.09
				c-27.55-17.85-75.27-28.04-127.64-27.22c-43.65,0.67-111.33,9.06-185.91,45.26c-68.79,33.39-117.09,74.35-168.23,117.72
				C547.26-165.05,473.85-102.8,339.51-58.88c-92.36,30.2-185.07,30.35-274.73,30.5C-119.82-28.09-279.25-27.84-378.46,225.99z"/>
		</g>
		<g>
			<path class="st1" d="M-382.26,217.22l-1.22-0.44c22.62-62.27,49.73-111.27,82.87-149.79C-270.8,32.34-236.54,6.8-195.87-11.1
				c75.95-33.43,162.89-34.98,254.92-36.62c88.97-1.58,180.97-3.22,272.12-33.4c133.13-44.06,205.46-104.55,275.41-163.04
				c51.53-43.1,100.21-83.8,170.77-117.3c73.94-35.11,141.74-42.73,185.6-42.94c0.62,0,1.24,0,1.85,0
				c52.43,0,99.91,10.8,127.31,28.99l-0.72,1.08c-27.19-18.06-74.41-28.78-126.59-28.78c-0.62,0-1.23,0-1.85,0
				c-43.73,0.21-111.33,7.81-185.05,42.82c-70.41,33.43-119.02,74.08-170.49,117.12c-70.04,58.57-142.47,119.14-275.83,163.28
				C240.25-49.64,148.14-48,59.08-46.42C-127.57-43.09-288.76-40.22-382.26,217.22z"/>
		</g>
		<g>
			<path class="st1" d="M-386.07,208.46l-1.23-0.41c21.23-63.17,47.34-113.02,79.84-152.4c29.23-35.43,63.21-61.74,103.86-80.45
				c75.94-34.94,163.93-37.91,257.08-41.06c88.33-2.98,179.67-6.07,269.75-36.26c131.94-44.21,203.21-103,272.13-159.86
				c51.94-42.85,101-83.33,173.43-116.8c72.98-34.02,140.77-40.86,184.7-40.58c53.68,0.33,102.28,11.78,130,30.63l-0.73,1.08
				c-27.52-18.71-75.84-30.08-129.28-30.41c-43.85-0.26-111.38,6.54-184.15,40.46c-72.28,33.41-121.28,73.83-173.15,116.63
				c-69.01,56.93-140.38,115.81-272.54,160.09c-90.27,30.25-181.7,33.34-270.12,36.32C-135.27-58.19-298.32-52.68-386.07,208.46z"/>
		</g>
		<g>
			<path class="st1" d="M-389.88,199.69l-1.24-0.38c19.82-64.09,44.94-114.81,76.78-155.06c28.66-36.22,62.35-63.32,103.02-82.84
				c75.97-36.47,165.06-40.87,259.37-45.54c87.63-4.33,178.25-8.81,267.24-38.99c131.08-44.45,201.44-101.64,269.49-156.95
				c52.19-42.42,101.48-82.48,175.45-116.02c72.21-32.75,139.86-38.78,183.87-38.07c54.23,0.87,103.11,12.88,130.77,32.13
				l-0.74,1.07c-27.45-19.1-76.06-31.03-130.04-31.89c-43.89-0.71-111.32,5.3-183.32,37.95c-73.82,33.47-123.05,73.49-175.17,115.85
				c-68.14,55.38-138.59,112.65-269.89,157.17C226.55-91.65,135.84-87.16,48.12-82.83C-142.94-73.38-307.95-65.22-389.88,199.69z"/>
		</g>
	</g>
</g>
</svg>
