<svg xmlns="http://www.w3.org/2000/svg" viewBox="0 0 354.8 65.15"><g id="Layer_2" data-name="Layer 2"><g id="Layer_2-2" data-name="Layer 2"><path d="M31.47,24.72,25.64,34a20.58,20.58,0,0,0-3.53-3.07,6.82,6.82,0,0,0-3.91-1.33,6.27,6.27,0,0,0-2.31.49,6.62,6.62,0,0,0-2.35,1.63,9.31,9.31,0,0,0-1.86,3,12.11,12.11,0,0,0-.76,4.59V64H0V20.18H10.92v4.7a16,16,0,0,1,4.36-4.33A9.8,9.8,0,0,1,20.63,19a11.49,11.49,0,0,1,5.65,1.55A21.88,21.88,0,0,1,31.47,24.72Z" fill="#fff"/><path d="M80.62,42.09a22.64,22.64,0,0,1-1.82,9.14,22.14,22.14,0,0,1-5,7.28,24,24,0,0,1-7.47,4.86,23.56,23.56,0,0,1-9.14,1.78,23.3,23.3,0,0,1-9.11-1.78,23.76,23.76,0,0,1-7.43-4.89,23,23,0,0,1-5-7.32,22.67,22.67,0,0,1-1.81-9.07,21.94,21.94,0,0,1,1.85-9,23.6,23.6,0,0,1,5-7.36A23.31,23.31,0,0,1,57.19,19a23.56,23.56,0,0,1,9.14,1.78,24.13,24.13,0,0,1,7.47,4.85,22.21,22.21,0,0,1,5,7.32A22.76,22.76,0,0,1,80.62,42.09Zm-10.92,0a13.9,13.9,0,0,0-1-5.23A13.73,13.73,0,0,0,66,32.61a12.3,12.3,0,0,0-4-2.84,11.89,11.89,0,0,0-9.68,0,12.41,12.41,0,0,0-4,2.84,14.24,14.24,0,0,0-2.68,14.72,13.54,13.54,0,0,0,2.68,4.24,12.29,12.29,0,0,0,4,2.85,12,12,0,0,0,9.68,0,12.18,12.18,0,0,0,4-2.85,13.56,13.56,0,0,0,2.69-4.24A13.92,13.92,0,0,0,69.7,42.09Z" fill="#fff"/><path d="M129.62,42.09a24.89,24.89,0,0,1-1.56,8.8,23,23,0,0,1-4.37,7.32,21.22,21.22,0,0,1-6.69,5,19.47,19.47,0,0,1-8.52,1.85,17.74,17.74,0,0,1-5.39-.79,14.76,14.76,0,0,1-4.72-2.54V64H87.45V1.06h11l.07,21.24A15.3,15.3,0,0,1,103,19.87a16.57,16.57,0,0,1,5.5-.91,18.33,18.33,0,0,1,7.82,1.78,22.55,22.55,0,0,1,6.75,4.9A24.25,24.25,0,0,1,127.84,33,23.38,23.38,0,0,1,129.62,42.09Zm-11.07,0a16,16,0,0,0-.92-5.53,12.74,12.74,0,0,0-2.55-4.29,10.94,10.94,0,0,0-3.88-2.73,12.75,12.75,0,0,0-5-.95,13.59,13.59,0,0,0-4,.72,12.77,12.77,0,0,0-3.81,1.86V52.26a11.84,11.84,0,0,0,12.9,2.27,11,11,0,0,0,3.85-2.77,13,13,0,0,0,2.51-4.24A15.51,15.51,0,0,0,118.55,42.09Z" fill="#fff"/><path d="M181.72,42.09a22.64,22.64,0,0,1-1.82,9.14,22.14,22.14,0,0,1-5,7.28,24,24,0,0,1-7.47,4.86,23.56,23.56,0,0,1-9.14,1.78,23.22,23.22,0,0,1-9.1-1.78,23.69,23.69,0,0,1-7.44-4.89,22.85,22.85,0,0,1-5-7.32,22.51,22.51,0,0,1-1.82-9.07,22,22,0,0,1,1.86-9,23.57,23.57,0,0,1,5-7.36A23.31,23.31,0,0,1,158.29,19a23.56,23.56,0,0,1,9.14,1.78,24.13,24.13,0,0,1,7.47,4.85,22.21,22.21,0,0,1,5,7.32A22.76,22.76,0,0,1,181.72,42.09Zm-10.92,0a13.79,13.79,0,0,0-3.66-9.48,12.34,12.34,0,0,0-4-2.84,11.86,11.86,0,0,0-9.67,0,12.19,12.19,0,0,0-4,2.84,13.73,13.73,0,0,0-2.69,4.25,14.47,14.47,0,0,0,0,10.47,13.56,13.56,0,0,0,2.69,4.24,12.08,12.08,0,0,0,4,2.85,12,12,0,0,0,9.67,0,12.22,12.22,0,0,0,4-2.85,13.72,13.72,0,0,0,2.68-4.24A13.92,13.92,0,0,0,170.8,42.09Z" fill="#fff"/><path d="M213.05,11.07a14,14,0,0,0-2.81-.79,16.76,16.76,0,0,0-2.65-.19c-2.13,0-3.63.48-4.52,1.44s-1.32,2.7-1.32,5.23v3.49h6.9v9.56h-6.9V64H190.82V29.81h-5.31V20.25h5.31V16.91q0-8.26,3.1-12.59T204.78,0a31.07,31.07,0,0,1,8.27,1.06Z" fill="#fff"/><path d="M234.89,63.78a14.08,14.08,0,0,1-2.92,1,15,15,0,0,1-3.38.38,17.13,17.13,0,0,1-4.66-.64A10.33,10.33,0,0,1,220,62.42a10.13,10.13,0,0,1-2.65-3.75,14.17,14.17,0,0,1-1-5.58v-52h11.15V51.2c0,1.82.37,3.07,1.1,3.75a3.72,3.72,0,0,0,2.62,1,6.56,6.56,0,0,0,3.64-1.14Z" fill="#fff"/><path d="M285.48,42.09a22.81,22.81,0,0,1-1.82,9.14,22.17,22.17,0,0,1-5,7.28A23.85,23.85,0,0,1,262,65.15a23.26,23.26,0,0,1-9.1-1.78,23.64,23.64,0,0,1-7.43-4.89,22.68,22.68,0,0,1-6.83-16.39,22,22,0,0,1,1.86-9,23.74,23.74,0,0,1,5-7.36A23.29,23.29,0,0,1,253,20.82,23,23,0,0,1,262,19a23.53,23.53,0,0,1,9.14,1.78,23.9,23.9,0,0,1,7.47,4.85,22.23,22.23,0,0,1,5,7.32A22.93,22.93,0,0,1,285.48,42.09Zm-10.92,0a13.86,13.86,0,0,0-3.67-9.48,12.41,12.41,0,0,0-4-2.84,11.89,11.89,0,0,0-9.68,0,12.3,12.3,0,0,0-4,2.84,14.22,14.22,0,0,0-2.69,14.72,13.75,13.75,0,0,0,2.69,4.24,12.18,12.18,0,0,0,4,2.85,12,12,0,0,0,9.68,0,12.29,12.29,0,0,0,4-2.85,13.54,13.54,0,0,0,2.68-4.24A13.73,13.73,0,0,0,274.56,42.09Z" fill="#fff"/><path d="M354.8,20.1l-14.71,44H330.6l-8.72-26.17-8.72,26.17h-9.48l-14.79-44h11.53l8.26,27.46L317,20.1h9.71L335,47.56l8.27-27.46Z" fill="#fff"/></g></g></svg>